<svg xmlns="http://www.w3.org/2000/svg" width="120" height="120" viewBox="0 0 120 120">
  <defs>
    <pattern id="kawung" x="0" y="0" width="120" height="120" patternUnits="userSpaceOnUse">
      <rect width="120" height="120" fill="none"/>
      
      <!-- Center intersections -->
      <path d="M60 0 L66 6 L60 12 L54 6 Z" fill="#c69b58" opacity="0.6"/>
      <path d="M60 120 L66 114 L60 108 L54 114 Z" fill="#c69b58" opacity="0.6"/>
      <path d="M0 60 L6 54 L12 60 L6 66 Z" fill="#c69b58" opacity="0.6"/>
      <path d="M120 60 L114 54 L108 60 L114 66 Z" fill="#c69b58" opacity="0.6"/>
      
      <circle cx="60" cy="60" r="4" fill="#c69b58" opacity="0.7"/>

      <!-- Refined Kawung petals -->
      <!-- Top Right -->
      <path d="M64 56 C 85 35, 115 5, 120 0 C 115 25, 85 55, 64 56 Z" fill="#c69b58" opacity="0.2"/>
      <path d="M62 58 C 85 35, 115 5, 120 0 C 95 5, 65 35, 62 58 Z" fill="#c69b58" opacity="0.2"/>
      <path d="M75 45 C 90 30, 105 15, 105 15 C 90 30, 75 45, 75 45 Z" stroke="#c69b58" stroke-width="1.5" opacity="0.4"/>
      <circle cx="90" cy="30" r="3" fill="#c69b58" opacity="0.4"/>
      <circle cx="100" cy="20" r="2" fill="#c69b58" opacity="0.4"/>
      <circle cx="80" cy="40" r="2" fill="#c69b58" opacity="0.4"/>

      <!-- Bottom Right -->
      <path d="M64 64 C 85 85, 115 115, 120 120 C 115 95, 85 65, 64 64 Z" fill="#c69b58" opacity="0.2"/>
      <path d="M62 62 C 85 85, 115 115, 120 120 C 95 115, 65 85, 62 62 Z" fill="#c69b58" opacity="0.2"/>
      <path d="M75 75 C 90 90, 105 105, 105 105 C 90 90, 75 75, 75 75 Z" stroke="#c69b58" stroke-width="1.5" opacity="0.4"/>
      <circle cx="90" cy="90" r="3" fill="#c69b58" opacity="0.4"/>
      <circle cx="100" cy="100" r="2" fill="#c69b58" opacity="0.4"/>
      <circle cx="80" cy="80" r="2" fill="#c69b58" opacity="0.4"/>

      <!-- Bottom Left -->
      <path d="M56 64 C 35 85, 5 115, 0 120 C 5 95, 35 65, 56 64 Z" fill="#c69b58" opacity="0.2"/>
      <path d="M58 62 C 35 85, 5 115, 0 120 C 25 115, 55 85, 58 62 Z" fill="#c69b58" opacity="0.2"/>
      <path d="M45 75 C 30 90, 15 105, 15 105 C 30 90, 45 75, 45 75 Z" stroke="#c69b58" stroke-width="1.5" opacity="0.4"/>
      <circle cx="30" cy="90" r="3" fill="#c69b58" opacity="0.4"/>
      <circle cx="20" cy="100" r="2" fill="#c69b58" opacity="0.4"/>
      <circle cx="40" cy="80" r="2" fill="#c69b58" opacity="0.4"/>

      <!-- Top Left -->
      <path d="M56 56 C 35 35, 5 5, 0 0 C 5 25, 35 55, 56 56 Z" fill="#c69b58" opacity="0.2"/>
      <path d="M58 58 C 35 35, 5 5, 0 0 C 25 5, 55 35, 58 58 Z" fill="#c69b58" opacity="0.2"/>
      <path d="M45 45 C 30 30, 15 15, 15 15 C 30 30, 45 45, 45 45 Z" stroke="#c69b58" stroke-width="1.5" opacity="0.4"/>
      <circle cx="30" cy="30" r="3" fill="#c69b58" opacity="0.4"/>
      <circle cx="20" cy="20" r="2" fill="#c69b58" opacity="0.4"/>
      <circle cx="40" cy="40" r="2" fill="#c69b58" opacity="0.4"/>

      <!-- Diagonal connecting lines -->
      <line x1="0" y1="0" x2="120" y2="120" stroke="#c69b58" stroke-width="0.5" stroke-dasharray="2 4" opacity="0.3"/>
      <line x1="0" y1="120" x2="120" y2="0" stroke="#c69b58" stroke-width="0.5" stroke-dasharray="2 4" opacity="0.3"/>
    </pattern>
  </defs>
  <rect width="100%" height="100%" fill="url(#kawung)"/>
</svg>
