<svg xmlns="http://www.w3.org/2000/svg" width="240" height="240" viewBox="0 0 240 240" fill="none">
  <rect width="240" height="240" fill="#F7F0E7"/>
  <g opacity="0.28" stroke="#C69B58" stroke-width="1.2">
    <path d="M40 40C60 20 92 20 112 40C132 60 132 92 112 112C92 132 60 132 40 112C20 92 20 60 40 40Z"/>
    <path d="M128 128C148 108 180 108 200 128C220 148 220 180 200 200C180 220 148 220 128 200C108 180 108 148 128 128Z"/>
    <path d="M128 40C148 20 180 20 200 40C220 60 220 92 200 112C180 132 148 132 128 112C108 92 108 60 128 40Z"/>
    <path d="M40 128C60 108 92 108 112 128C132 148 132 180 112 200C92 220 60 220 40 200C20 180 20 148 40 128Z"/>
  </g>
  <g opacity="0.16" fill="#8E6545">
    <circle cx="120" cy="24" r="4"/>
    <circle cx="120" cy="216" r="4"/>
    <circle cx="24" cy="120" r="4"/>
    <circle cx="216" cy="120" r="4"/>
    <circle cx="120" cy="120" r="7"/>
  </g>
</svg>
