<svg xmlns="http://www.w3.org/2000/svg" viewBox="0 0 100 100" fill="none">
  <!-- Premium Javanese Corner Ornament -->
  
  <!-- Elegant layered border -->
  <path d="M2 98 V2 H98" stroke="#c69b58" stroke-width="2" opacity="0.85"/>
  <path d="M8 98 V8 H98" stroke="#c69b58" stroke-width="1" opacity="0.6"/>
  <path d="M14 98 V14 H98" stroke="#c69b58" stroke-width="0.5" opacity="0.4"/>
  
  <!-- Intricate Scrollwork (Ukiran Jawa) -->
  <path d="M2 55 Q45 55 55 2" stroke="#c69b58" stroke-width="2" opacity="0.8" fill="none"/>
  <path d="M8 65 Q55 65 65 8" stroke="#c69b58" stroke-width="1.5" opacity="0.6" fill="none"/>
  <path d="M14 75 Q65 75 75 14" stroke="#c69b58" stroke-width="1" stroke-dasharray="2 3" opacity="0.5" fill="none"/>
  
  <!-- Floral/Leaf accents -->
  <path d="M30 30 Q45 15 55 30 Q45 45 30 30 Z" fill="#c69b58" opacity="0.7"/>
  <path d="M18 40 Q30 35 40 50 Q25 45 18 40 Z" fill="#c69b58" opacity="0.5"/>
  <path d="M40 18 Q45 25 50 40 Q35 30 40 18 Z" fill="#c69b58" opacity="0.5"/>
  
  <!-- Delicate tendrils -->
  <path d="M55 30 Q65 40 50 45" stroke="#c69b58" stroke-width="1" fill="none" opacity="0.6"/>
  <path d="M30 55 Q40 65 45 50" stroke="#c69b58" stroke-width="1" fill="none" opacity="0.6"/>
  
  <!-- Center decorative dot -->
  <circle cx="15" cy="15" r="3" fill="#c69b58" opacity="0.8"/>
  <circle cx="25" cy="15" r="1.5" fill="#c69b58" opacity="0.5"/>
  <circle cx="15" cy="25" r="1.5" fill="#c69b58" opacity="0.5"/>
</svg>
