<svg xmlns="http://www.w3.org/2000/svg" viewBox="0 0 400 120" fill="none">
  <!-- Javanese border ornament - horizontal decorative band -->
  <!-- Center diamond motif -->
  <path d="M200 10 L220 60 L200 110 L180 60Z" fill="#c69b58" opacity="0.12"/>
  <path d="M200 20 L214 60 L200 100 L186 60Z" stroke="#c69b58" stroke-width="0.8" fill="none" opacity="0.35"/>
  <path d="M200 30 L208 60 L200 90 L192 60Z" fill="#c69b58" opacity="0.08"/>

  <!-- Left decorative curves -->
  <path d="M170 60 Q160 35 140 40 Q125 45 130 60 Q125 75 140 80 Q160 85 170 60Z" stroke="#c69b58" stroke-width="0.6" fill="#c69b58" fill-opacity="0.06" opacity="0.4"/>
  <path d="M130 60 Q120 42 105 48 Q95 54 100 60 Q95 66 105 72 Q120 78 130 60Z" stroke="#c69b58" stroke-width="0.5" fill="none" opacity="0.3"/>
  <path d="M100 60 Q88 48 75 52 Q68 56 72 60 Q68 64 75 68 Q88 72 100 60Z" stroke="#c69b58" stroke-width="0.4" fill="none" opacity="0.2"/>

  <!-- Right decorative curves (mirrored) -->
  <path d="M230 60 Q240 35 260 40 Q275 45 270 60 Q275 75 260 80 Q240 85 230 60Z" stroke="#c69b58" stroke-width="0.6" fill="#c69b58" fill-opacity="0.06" opacity="0.4"/>
  <path d="M270 60 Q280 42 295 48 Q305 54 300 60 Q305 66 295 72 Q280 78 270 60Z" stroke="#c69b58" stroke-width="0.5" fill="none" opacity="0.3"/>
  <path d="M300 60 Q312 48 325 52 Q332 56 328 60 Q332 64 325 68 Q312 72 300 60Z" stroke="#c69b58" stroke-width="0.4" fill="none" opacity="0.2"/>

  <!-- Horizontal lines -->
  <line x1="10" y1="60" x2="65" y2="60" stroke="#c69b58" stroke-width="0.5" opacity="0.25"/>
  <line x1="335" y1="60" x2="390" y2="60" stroke="#c69b58" stroke-width="0.5" opacity="0.25"/>

  <!-- Small dots -->
  <circle cx="25" cy="60" r="1.5" fill="#c69b58" opacity="0.2"/>
  <circle cx="50" cy="60" r="1" fill="#c69b58" opacity="0.15"/>
  <circle cx="350" cy="60" r="1" fill="#c69b58" opacity="0.15"/>
  <circle cx="375" cy="60" r="1.5" fill="#c69b58" opacity="0.2"/>
</svg>
